<?xml version="1.0" encoding="utf-8"?>

<!-- License Agreement at http://iconmonstr.com/license/ -->

<!DOCTYPE svg PUBLIC "-//W3C//DTD SVG 1.1//EN" "http://www.w3.org/Graphics/SVG/1.1/DTD/svg11.dtd">
<svg version="1.1" xmlns="http://www.w3.org/2000/svg" xmlns:xlink="http://www.w3.org/1999/xlink" x="0px" y="0px"
	 width="512px" height="512px" viewBox="0 0 512 512" enable-background="new 0 0 512 512" xml:space="preserve">
<path id="tags-2-icon" d="M218.424,85.51L358.21,225.133l-92.045,92.045L126.448,177.379V85.51H218.424z M233.121,50H90.938v142.081
	l175.219,175.322l142.286-142.285L233.121,50z M159.231,153.396c-10.426-10.428-10.426-27.335,0-37.76
	c10.425-10.428,27.332-10.428,37.76,0c10.429,10.425,10.429,27.332,0,37.76C186.563,163.822,169.656,163.822,159.231,153.396z
	 M394.376,282.229l26.686,26.65L267.941,462L90.938,284.883v-49.744l175.213,175.316L394.376,282.229z"/>
</svg>
